HIERARCHY
ROOT Hip
{
	OFFSET 0 1.131 0.0052
	CHANNELS 6 Xposition Yposition Zposition Xrotation Yrotation Zrotation
	JOINT Abdomen
	{
		OFFSET 0 -0.047353 -0.05
		CHANNELS 3 Xrotation Zrotation Yrotation
		JOINT Chest
		{
			OFFSET 0 0.132153 0.007439
			CHANNELS 3 Xrotation Zrotation Yrotation
			JOINT Neck
			{
				OFFSET 0 0.3078 0.006161
				CHANNELS 3 Xrotation Zrotation Yrotation
				JOINT Head_comp
				{
					OFFSET 0 0.0884 0.013
					CHANNELS 3 Xrotation Yrotation Zrotation
					End Site
					{
						OFFSET -0 0.156 0.0624
					}
				}
			}
			JOINT Left_Collar
			{
				OFFSET 0.02282 0.250342 0.017193
				CHANNELS 2 Yrotation Zrotation
				JOINT Left_Shoulder
				{
					OFFSET 0.15421 0 0
					CHANNELS 3 Xrotation Yrotation Zrotation
					JOINT Left_Forearm
					{
						OFFSET 0.265212 0 0
						CHANNELS 2 Yrotation Xrotation
						JOINT Left_Hand
						{
							OFFSET 0.27571 0 0
							CHANNELS 2 Zrotation Yrotation
							JOINT L1ProxPhalanx
							{
								OFFSET 0.014142 0.001733 0.014142
								CHANNELS 3 Yrotation Zrotation Xrotation
								JOINT L1MidPhalanx
								{
									OFFSET 0.04 0 0
									CHANNELS 1 Zrotation
									JOINT L1DistPhalanx
									{
										OFFSET 0.035 0 0
										CHANNELS 1 Zrotation
										End Site
										{
											OFFSET 0.029 -0 -0
										}
									}
								}
							}
							JOINT L2ProxPhalanx
							{
								OFFSET 0.0821037 0.001578 0.0219996
								CHANNELS 2 Yrotation Zrotation
								JOINT L2MidPhalanx
								{
									OFFSET 0.04 0 0
									CHANNELS 1 Zrotation
									JOINT L2DistPhalanx
									{
										OFFSET 0.028 0 0
										CHANNELS 1 Zrotation
										End Site
										{
											OFFSET 0.02 -0 -0
										}
									}
								}
							}
							JOINT L3ProxPhalanx
							{
								OFFSET 0.083 0 0
								CHANNELS 2 Yrotation Zrotation
								JOINT L3MidPhalanx
								{
									OFFSET 0.053 0 0
									CHANNELS 1 Zrotation
									JOINT L3DistPhalanx
									{
										OFFSET 0.03 0 0
										CHANNELS 1 Zrotation
										End Site
										{
											OFFSET 0.023 -0 -0
										}
									}
								}
							}
							JOINT L4ProxPhalanx
							{
								OFFSET 0.077274 -0.000761 -0.0207055
								CHANNELS 2 Yrotation Zrotation
								JOINT L4MidPhalanx
								{
									OFFSET 0.05 0 0
									CHANNELS 1 Zrotation
									JOINT L4DistPhalanx
									{
										OFFSET 0.03 0 0
										CHANNELS 1 Zrotation
										End Site
										{
											OFFSET 0.023 -0 -0
										}
									}
								}
							}
							JOINT L5ProxPhalanx
							{
								OFFSET 0.0675499 -0.001644 -0.039
								CHANNELS 2 Yrotation Zrotation
								JOINT L5MidPhalanx
								{
									OFFSET 0.04 0 0
									CHANNELS 1 Zrotation
									JOINT L5DistPhalanx
									{
										OFFSET 0.021 0 0
										CHANNELS 1 Zrotation
										End Site
										{
											OFFSET 0.022 -0 -0
										}
									}
								}
							}
						}
					}
				}
			}
			JOINT Right_Collar
			{
				OFFSET -0.02282 0.250342 0.017193
				CHANNELS 2 Yrotation Zrotation
				JOINT Right_Shoulder
				{
					OFFSET -0.15421 0 0
					CHANNELS 3 Xrotation Yrotation Zrotation
					JOINT Right_Forearm
					{
						OFFSET -0.265212 0 0
						CHANNELS 2 Yrotation Xrotation
						JOINT Right_Hand
						{
							OFFSET -0.27571 3e-006 0
							CHANNELS 2 Zrotation Yrotation
							JOINT R1ProxPhalanx
							{
								OFFSET -0.014142 0.001733 0.014142
								CHANNELS 3 Yrotation Zrotation Xrotation
								JOINT R1MidPhalanx
								{
									OFFSET -0.04 0 0
									CHANNELS 1 Zrotation
									JOINT R1DistPhalanx
									{
										OFFSET -0.035 0 0
										CHANNELS 1 Zrotation
										End Site
										{
											OFFSET -0.029 -0 -0
										}
									}
								}
							}
							JOINT R2ProxPhalanx
							{
								OFFSET -0.0821037 0.001578 0.0219996
								CHANNELS 2 Yrotation Zrotation
								JOINT R2MidPhalanx
								{
									OFFSET -0.04 0 0
									CHANNELS 1 Zrotation
									JOINT R2DistPhalanx
									{
										OFFSET -0.028 0 0
										CHANNELS 1 Zrotation
										End Site
										{
											OFFSET -0.02 -0 -0
										}
									}
								}
							}
							JOINT R3ProxPhalanx
							{
								OFFSET -0.083 0 0
								CHANNELS 2 Yrotation Zrotation
								JOINT R3MidPhalanx
								{
									OFFSET -0.053 0 0
									CHANNELS 1 Zrotation
									JOINT R3DistPhalanx
									{
										OFFSET -0.03 0 0
										CHANNELS 1 Zrotation
										End Site
										{
											OFFSET -0.023 -0 -0
										}
									}
								}
							}
							JOINT R4ProxPhalanx
							{
								OFFSET -0.077274 -0.000761 -0.0207055
								CHANNELS 2 Yrotation Zrotation
								JOINT R4MidPhalanx
								{
									OFFSET -0.05 0 0
									CHANNELS 1 Zrotation
									JOINT R4DistPhalanx
									{
										OFFSET -0.03 0 0
										CHANNELS 1 Zrotation
										End Site
										{
											OFFSET -0.023 -0 -0
										}
									}
								}
							}
							JOINT R5ProxPhalanx
							{
								OFFSET -0.0675499 -0.001644 -0.039
								CHANNELS 2 Yrotation Zrotation
								JOINT R5MidPhalanx
								{
									OFFSET -0.04 0 0
									CHANNELS 1 Zrotation
									JOINT R5DistPhalanx
									{
										OFFSET -0.021 0 0
										CHANNELS 1 Zrotation
										End Site
										{
											OFFSET -0.022 -0 -0
										}
									}
								}
							}
						}
					}
				}
			}
		}
	}
	JOINT Left_Thigh
	{
		OFFSET 0.1118 -0.1612 -0.0442
		CHANNELS 3 Xrotation Zrotation Yrotation
		JOINT Left_Shin
		{
			OFFSET 0 -0.477856 0
			CHANNELS 1 Xrotation
			JOINT Left_Foot
			{
				OFFSET 0 -0.431952 0
				CHANNELS 2 Xrotation Zrotation
				JOINT Left_Toe
				{
					OFFSET 0 -0.0442 0.119
					CHANNELS 1 Xrotation
					End Site
					{
						OFFSET -0 -0 0.07
					}
				}
			}
		}
	}
	JOINT Right_Thigh
	{
		OFFSET -0.1118 -0.1612 -0.0442
		CHANNELS 3 Xrotation Zrotation Yrotation
		JOINT Right_Shin
		{
			OFFSET 0 -0.477856 0
			CHANNELS 1 Xrotation
			JOINT Right_Foot
			{
				OFFSET 0 -0.431952 0
				CHANNELS 2 Xrotation Zrotation
				JOINT Right_Toe
				{
					OFFSET 0 -0.0442 0.119
					CHANNELS 1 Xrotation
					End Site
					{
						OFFSET -0 -0 0.07
					}
				}
			}
		}
	}
}
MOTION
Frames: 8
Frame Time: 0.009975
-0.0958276 -0.0602039 0.0504203 -1.91054e-013 6.41544e-008 -5.10971e-006 0 0 0 0 0 0 0 0 0 -0.713195 0.27536 0 0 -3.88717 30.6237 -11.2182 -67.4665 -82.6896 0 0 0 -36.7832 -29.9624 77.4898 -4.76427 -12.2444 -6.63439 -16.4575 -31.3511 -13.5114 -0.647911 -24.507 -18.2419 -18.0941 9.02909 -22.0218 -38.2405 -19.3412 17.3445 -18.4185 -40.523 -37.4487 -1.43927 14.514 -12.3313 28.7452 29.0586 37.2051 16.433 -23.0707 8.28308 100.73 63.3011 59.7832 9.12 4.22734 6.6647 7.25284 14.4727 12.4395 1.76276 -0.712129 5.21793 1.93396 3.75207 -1.56005 7.45705 5.58267 -8.40025 -3.93095 32.4737 -20.5638 0.707926 -1.00592 -0.0124288 0.0240216 -0.731839 1.006 0 0.719333 -1.00592 -0.0126291 1.70755e-006 -0.719224 1.006 0 
-0.0958276 -0.0602039 0.0504203 -1.91054e-013 6.41544e-008 -5.10971e-006 0 0 0 0 0 0 0 0 0 -0.713195 0.27536 0 0 -3.88717 30.6237 -11.2182 -67.4665 -82.6896 0 0 0 -36.7832 -29.9624 77.4898 -4.76427 -12.2444 -6.63439 -16.4575 -31.3511 -13.5114 -0.647911 -24.507 -18.2419 -18.0941 9.02909 -22.0218 -38.2405 -19.3412 17.3445 -18.4185 -40.523 -37.4487 -1.43927 14.514 -12.3313 28.7452 29.0586 37.2051 16.433 -23.0707 8.28308 100.73 63.3011 59.7832 9.12 4.22734 6.6647 7.25284 14.4727 12.4395 1.76276 -0.712129 5.21793 1.93396 3.75207 -1.56005 7.45705 5.58267 -8.40025 -3.93095 32.4737 -20.5638 0.707926 -1.00592 -0.0124288 0.0240216 -0.731839 1.006 0 0.719333 -1.00592 -0.0126291 1.70755e-006 -0.719224 1.006 0 
-0.101405 -0.0600538 0.0409588 -5.75402e-012 1.10018e-008 -5.0841e-006 0 -0 0 0 -0 0 0 -0 0 -0.710356 0.29111 -9.06846e-006 1.43211 -14.4414 -12.7439 -28.6489 -30.5819 -36.4831 16.3536 22.9556 -8.24222 -100.301 -63.1534 60.0993 -9.2494 -4.3062 -6.63675 -7.36649 -14.6003 -12.4523 -1.75419 0.548587 -5.39184 -2.01429 -3.72656 1.39239 -7.61976 -5.64476 8.38848 3.79132 -32.4813 20.361 -1.43211 14.4414 -12.7439 28.6489 30.5819 36.4831 16.3536 -22.9556 8.24222 100.301 63.1534 60.0993 9.2494 4.3062 6.63675 7.36649 14.6003 12.4523 1.75419 -0.548587 5.39184 2.01429 3.72656 -1.39239 7.61976 5.64476 -8.38848 -3.79132 32.4813 -20.361 0.112017 -0.654619 -0.00128302 0.0239015 -0.135911 0.654625 0 0.123366 -0.654619 -0.00141301 2.40276e-006 -0.12336 0.654625 0 
-0.10135 -0.0600528 0.0401957 -5.78294e-012 1.10571e-008 -5.10965e-006 0 -0 0 0 -0 0 0 -0 0 -0.712057 0.290875 -2.09198e-010 1.43927 -14.514 -12.3343 -28.7458 -29.0677 -37.201 16.433 23.0707 -8.28308 -100.73 -63.3011 59.7832 -9.12 -4.22734 -6.6647 -7.25284 -14.4727 -12.4395 -1.76276 0.712129 -5.21793 -1.93396 -3.75207 1.56005 -7.45705 -5.58267 8.40025 3.93095 -32.4737 20.5638 -1.43927 14.514 -12.3343 28.7458 29.0677 37.201 16.433 -23.0707 8.28308 100.73 63.3011 59.7832 9.12 4.22734 6.6647 7.25284 14.4727 12.4395 1.76276 -0.712129 5.21793 1.93396 3.75207 -1.56005 7.45705 5.58267 -8.40025 -3.93095 32.4737 -20.5638 0.0638994 -0.658113 -0.000733955 0.0240216 -0.0879168 0.658119 0 0.075305 -0.658113 -0.000864958 2.41484e-006 -0.0753024 0.658119 0 
-0.10135 -0.0600528 0.0401917 1.06083e-011 6.68292e-009 -5.10966e-006 0 -0 0 0 -0 0 0 -0 0 -0.712034 0.290857 -4.60433e-015 1.43927 -14.514 -12.3313 -28.7452 -29.0586 -37.2051 16.433 23.0707 -8.28308 -100.73 -63.3011 59.7832 -9.12 -4.22734 -6.6647 -7.25284 -14.4727 -12.4395 -1.76276 0.712129 -5.21793 -1.93396 -3.75207 1.56005 -7.45705 -5.58267 8.40025 3.93095 -32.4737 20.5638 -1.43927 14.514 -12.3313 28.7452 29.0586 37.2051 16.433 -23.0707 8.28308 100.73 63.3011 59.7832 9.12 4.22734 6.6647 7.25284 14.4727 12.4395 1.76276 -0.712129 5.21793 1.93396 3.75207 -1.56005 7.45705 5.58267 -8.40025 -3.93095 32.4737 -20.5638 0.0636505 -0.658117 -0.0007311 0.0240216 -0.087668 0.658122 0 0.0750561 -0.658117 -0.000862106 2.41484e-008 -0.0750512 0.658122 0 
-0.10135 -0.0600528 0.0401918 2.08132e-012 6.69374e-009 -5.10966e-006 0 -0 0 0 -0 0 0 -0 0 -0.712034 0.290857 -0 1.43927 -14.514 -12.3313 -28.7452 -29.0586 -37.2051 16.433 23.0707 -8.28308 -100.73 -63.3011 59.7832 -9.12 -4.22734 -6.6647 -7.25284 -14.4727 -12.4395 -1.76276 0.712129 -5.21793 -1.93396 -3.75207 1.56005 -7.45705 -5.58267 8.40025 3.93095 -32.4737 20.5638 -1.43927 14.514 -12.3313 28.7452 29.0586 37.2051 16.433 -23.0707 8.28308 100.73 63.3011 59.7832 9.12 4.22734 6.6647 7.25284 14.4727 12.4395 1.76276 -0.712129 5.21793 1.93396 3.75207 -1.56005 7.45705 5.58267 -8.40025 -3.93095 32.4737 -20.5638 0.0636517 -0.658117 -0.000731114 0.0240216 -0.0876692 0.658122 0 0.0750573 -0.658117 -0.00086212 1.6862e-006 -0.0750552 0.658122 0 
-0.10135 -0.0600528 0.0401918 -9.75927e-012 6.69375e-009 -5.10966e-006 0 -0 0 0 -0 0 0 -0 0 -0.712034 0.290857 -0 1.43927 -14.514 -12.3313 -28.7452 -29.0586 -37.2051 16.433 23.0707 -8.28308 -100.73 -63.3011 59.7832 -9.12 -4.22734 -6.6647 -7.25284 -14.4727 -12.4395 -1.76276 0.712129 -5.21793 -1.93396 -3.75207 1.56005 -7.45705 -5.58267 8.40025 3.93095 -32.4737 20.5638 -1.43927 14.514 -12.3313 28.7452 29.0586 37.2051 16.433 -23.0707 8.28308 100.73 63.3011 59.7832 9.12 4.22734 6.6647 7.25284 14.4727 12.4395 1.76276 -0.712129 5.21793 1.93396 3.75207 -1.56005 7.45705 5.58267 -8.40025 -3.93095 32.4737 -20.5638 0.0636529 -0.658117 -0.000731128 0.0240216 -0.0876704 0.658122 0 0.0750585 -0.658117 -0.000862134 1.70755e-006 -0.0750552 0.658122 0 
-0.10135 -0.0600528 0.0401918 -9.94018e-012 6.69375e-009 -5.10966e-006 0 -0 0 0 -0 0 0 -0 0 -0.712034 0.290857 -3.88256e-019 1.43927 -14.514 -12.3313 -28.7452 -29.0586 -37.2051 16.433 23.0707 -8.28308 -100.73 -63.3011 59.7832 -9.12 -4.22734 -6.6647 -7.25284 -14.4727 -12.4395 -1.76276 0.712129 -5.21793 -1.93396 -3.75207 1.56005 -7.45705 -5.58267 8.40025 3.93095 -32.4737 20.5638 -1.43927 14.514 -12.3313 28.7452 29.0586 37.2051 16.433 -23.0707 8.28308 100.73 63.3011 59.7832 9.12 4.22734 6.6647 7.25284 14.4727 12.4395 1.76276 -0.712129 5.21793 1.93396 3.75207 -1.56005 7.45705 5.58267 -8.40025 -3.93095 32.4737 -20.5638 0.0636529 -0.658117 -0.000731128 0.0240216 -0.0876704 0.658122 0 0.0750585 -0.658117 -0.000862134 1.70755e-006 -0.0750553 0.658122 0 
